<?xml version="1.0" encoding="utf-8"?>
<!-- Generator: Adobe Illustrator 23.0.1, SVG Export Plug-In . SVG Version: 6.00 Build 0)  -->
<svg version="1.1" id="Layer_1" xmlns="http://www.w3.org/2000/svg" xmlns:xlink="http://www.w3.org/1999/xlink" x="0px" y="0px"
	 viewBox="0 0 64 64" style="enable-background:new 0 0 64 64;" xml:space="preserve">
<style type="text/css">
	.st0{fill:#231F20;}
</style>
<path id="XMLID_698_" class="st0" d="M46.47,6H17.53L0,14.76v20.47l16-8V58h32V27.24l16,8V14.76L46.47,6z M26,10h12v6
	c0,3.31-2.69,6-6,6s-6-2.69-6-6V10z M60,28.76l-16-8V54H20V20.76l-16,8V17.24L18.47,10H22v6c0,5.51,4.49,10,10,10s10-4.49,10-10v-6
	h3.53L60,17.24V28.76z"/>
</svg>
